<?xml version="1.0" encoding="UTF-8"?>
<!DOCTYPE svg PUBLIC "-//W3C//DTD SVG 1.1//EN" "http://www.w3.org/Graphics/SVG/1.1/DTD/svg11.dtd">
<!-- Creator: CorelDRAW 2020 (64-Bit) -->
<svg xmlns="http://www.w3.org/2000/svg" xml:space="preserve" width="100%" height="100%" version="1.1" style="shape-rendering:geometricPrecision; text-rendering:geometricPrecision; image-rendering:optimizeQuality; fill-rule:evenodd; clip-rule:evenodd"
viewBox="0 0 12195.15 9059.07"
 xmlns:xlink="http://www.w3.org/1999/xlink"
 xmlns:xodm="http://www.corel.com/coreldraw/odm/2003">
 <defs>
  <style type="text/css">
   <![CDATA[
    .fil16 {fill:#244057;fill-rule:nonzero}
    .fil15 {fill:#4A3F3F;fill-rule:nonzero}
    .fil24 {fill:#639C38;fill-rule:nonzero}
    .fil20 {fill:#665249;fill-rule:nonzero}
    .fil8 {fill:#665757;fill-rule:nonzero}
    .fil17 {fill:#81807E;fill-rule:nonzero}
    .fil11 {fill:#877373;fill-rule:nonzero}
    .fil14 {fill:#8A664D;fill-rule:nonzero}
    .fil22 {fill:#A77860;fill-rule:nonzero}
    .fil21 {fill:#AB8039;fill-rule:nonzero}
    .fil10 {fill:#ADD14D;fill-rule:nonzero}
    .fil13 {fill:#CF8C6C;fill-rule:nonzero}
    .fil23 {fill:#CFC147;fill-rule:nonzero}
    .fil25 {fill:#DB9C7C;fill-rule:nonzero}
    .fil12 {fill:#EEA886;fill-rule:nonzero}
    .fil19 {fill:#EEA987;fill-rule:nonzero}
    .fil18 {fill:#FFBF55;fill-rule:nonzero}
    .fil7 {fill:url(#id0)}
    .fil6 {fill:url(#id1)}
    .fil1 {fill:url(#id2)}
    .fil5 {fill:url(#id3)}
    .fil0 {fill:url(#id4)}
    .fil4 {fill:url(#id5)}
    .fil2 {fill:url(#id6)}
    .fil3 {fill:url(#id7)}
    .fil9 {fill:url(#id8)}
   ]]>
  </style>
  <linearGradient id="id0" gradientUnits="userSpaceOnUse" x1="3942.12" y1="7769.86" x2="4060.97" y2="6884.47">
   <stop offset="0" style="stop-opacity:1; stop-color:#3076A1"/>
   <stop offset="1" style="stop-opacity:1; stop-color:#639C38"/>
  </linearGradient>
  <linearGradient id="id1" gradientUnits="userSpaceOnUse" xlink:href="#id0" x1="2477.48" y1="6329.34" x2="3500.41" y2="6762.34">
  </linearGradient>
  <linearGradient id="id2" gradientUnits="userSpaceOnUse" xlink:href="#id0" x1="4312.24" y1="5447.3" x2="6238.29" y2="6126.15">
  </linearGradient>
  <linearGradient id="id3" gradientUnits="userSpaceOnUse" xlink:href="#id0" x1="3399.1" y1="6727.42" x2="5325.18" y2="7406.28">
  </linearGradient>
  <linearGradient id="id4" gradientUnits="userSpaceOnUse" xlink:href="#id0" x1="3994.23" y1="5006.47" x2="5173.08" y2="5434.59">
  </linearGradient>
  <linearGradient id="id5" gradientUnits="userSpaceOnUse" xlink:href="#id0" x1="3081.06" y1="6286.62" x2="4259.93" y2="6714.74">
  </linearGradient>
  <linearGradient id="id6" gradientUnits="userSpaceOnUse" xlink:href="#id0" x1="3390.63" y1="5049.22" x2="4413.55" y2="5482.21">
  </linearGradient>
  <linearGradient id="id7" gradientUnits="userSpaceOnUse" xlink:href="#id0" x1="4855.27" y1="6489.72" x2="4974.12" y2="5604.33">
  </linearGradient>
  <linearGradient id="id8" gradientUnits="userSpaceOnUse" xlink:href="#id0" x1="-1452.71" y1="8879.51" x2="6622.49" y2="6506.86">
  </linearGradient>
 </defs>
 <g id="Layer_x0020_1">
  <metadata id="CorelCorpID_0Corel-Layer"/>
  <path class="fil0" d="M4297.4 6391.43c0,0 193.33,-85.04 248.17,-270.17 54.79,-185.17 89.91,-440.05 239.76,-505.74 149.85,-65.65 464.67,-240.89 473.88,-460.2 9.21,-219.36 -464.75,-479.56 -355.53,-534.15 109.14,-54.63 306.01,-200.13 112.31,-318.84 -193.65,-118.71 -296.56,-139.51 -347.81,-300.18 -51.21,-160.71 -238.19,-242.94 -279.34,1.49 -41.19,244.46 -156.93,300.3 -131.79,504.21 25.18,203.91 142.41,395.6 -184.52,441.06 -326.89,45.5 -207.98,266.39 -135.13,427.42 72.81,161.03 91.36,796.27 113.12,906.65 21.8,110.46 113.24,182.79 246.87,108.45z"/>
  <path class="fil1" d="M4214.98 6502.25c0,0 443.91,-167.59 582.22,-137.5 138.3,30.13 395.04,103.22 496.33,-12.51 101.3,-115.74 183.04,-506.02 508.2,-462.42 325.08,43.61 445,-34.07 426.25,-228.25 -18.7,-194.22 508.11,-488.69 413.14,-595.53 -94.98,-106.84 -813.04,89.87 -1026.41,164.57 -213.41,74.67 -420.18,-95.82 -538.04,111.31 -117.83,207.17 -511.9,384.33 -643.04,348.73 -131.1,-35.56 -236.9,-53.94 -269,142.69 -32.1,196.63 -164.65,317.15 -199.57,439.33 -34.92,122.21 -81.22,210.63 249.93,229.58z"/>
  <path class="fil2" d="M3885.91 4236.71c-15.77,-120.2 -223.1,-175.92 -255.36,-25.14 -32.26,150.73 43.41,350.34 -240.89,525.73 -284.33,175.39 150.25,382.57 256.85,593.08 106.6,210.47 87.74,441.58 176.4,624.13 88.62,182.56 67.91,537.32 221.61,456.38 153.67,-80.94 103.95,-274.15 192.53,-486.11 88.62,-211.92 384.61,-261.6 185.97,-488.28 -198.65,-226.72 -432.69,-357.22 -240.12,-642.84 84.96,-125.95 -248,-183.04 -297,-556.95z"/>
  <path class="fil3" d="M3945.13 6381.61c0,0 153.47,-143.61 75.02,-452.28 -78.44,-308.71 -226.8,-317.72 242.41,-368.57 469.26,-50.85 283.76,-797.19 652.61,-753.67 368.85,43.53 1011.28,-832.27 1227.1,-615.89 215.82,216.43 -300.02,575.06 -165.26,784.72 134.76,209.59 94.82,401.87 -341.09,415.31 -435.87,13.48 19.91,811.83 -560.69,801.78 -580.61,-10.06 -670.71,721.12 -1130.11,188.59z"/>
  <path class="fil4" d="M3384.28 7671.55c0,0 193.33,-85 248.13,-270.17 54.79,-185.13 89.95,-440.05 239.8,-505.7 149.85,-65.69 464.67,-240.92 473.88,-460.24 9.21,-219.36 -464.75,-479.55 -355.57,-534.14 109.18,-54.59 306.01,-200.09 112.35,-318.8 -193.7,-118.71 -296.56,-139.55 -347.81,-300.22 -51.21,-160.67 -238.19,-242.93 -279.38,1.49 -41.15,244.46 -156.93,300.34 -131.74,504.21 25.18,203.91 142.37,395.6 -184.52,441.06 -326.89,45.5 -208.02,266.43 -135.17,427.42 72.85,161.03 91.35,796.26 113.16,906.69 21.76,110.43 113.24,182.76 246.88,108.41z"/>
  <path class="fil5" d="M3301.85 7782.37c0,0 443.91,-167.55 582.21,-137.46 138.26,30.09 395,103.22 496.29,-12.51 101.29,-115.73 183.07,-506.06 508.19,-462.41 325.12,43.61 445.04,-34.11 426.3,-228.3 -18.75,-194.18 508.07,-488.64 413.14,-595.53 -94.98,-106.81 -813.08,89.87 -1026.45,164.57 -213.37,74.66 -420.18,-95.82 -538,111.35 -117.87,207.17 -511.94,384.3 -643.04,348.69 -131.1,-35.56 -236.94,-53.94 -269.04,142.69 -32.1,196.67 -164.65,317.19 -199.53,439.41 -34.92,122.17 -81.22,210.59 249.93,229.5z"/>
  <path class="fil6" d="M2972.75 5516.83c-15.73,-120.2 -223.1,-175.87 -255.33,-25.14 -32.26,150.77 43.41,350.34 -240.92,525.78 -284.29,175.35 150.29,382.56 256.89,593.07 106.6,210.47 87.74,441.58 176.4,624.09 88.62,182.59 67.91,537.32 221.57,456.38 153.67,-80.94 103.99,-274.15 192.57,-486.07 88.58,-211.96 384.62,-261.6 185.97,-488.32 -198.64,-226.72 -432.73,-357.22 -240.12,-642.8 84.96,-125.99 -248,-183.04 -297.04,-556.99z"/>
  <path class="fil7" d="M3031.96 7661.73c0,0 153.51,-143.61 75.07,-452.28 -78.44,-308.67 -226.8,-317.72 242.41,-368.56 469.21,-50.85 283.76,-797.15 652.61,-753.67 368.85,43.52 1011.28,-832.27 1227.11,-615.89 215.82,216.39 -300.02,575.09 -165.26,784.72 134.76,209.63 94.81,401.87 -341.09,415.31 -435.91,13.48 19.87,811.83 -560.69,801.81 -580.65,-10.06 -670.72,721.08 -1130.16,188.55z"/>
  <path class="fil8" d="M7811.21 8816.71c-357.26,-250.86 -1034.5,-455.26 -1815.43,-604.42 -1357.56,-259.39 -3029.06,-351.71 -3879.11,-231.11 -1339.1,190.07 -2721.71,-705.35 -1620.65,-1269.67 544.11,-278.9 3473.3,-761.15 5646.59,-896.11 0,0 0.16,0 0.56,0 1167.53,-72.29 2116.86,-44.69 2360.96,168.8 978.98,855.64 1507.53,387.27 3295.61,1513.89 1787.92,1126.61 -3010.72,2005.67 -3988.53,1318.62z"/>
  <path class="fil9" d="M6294.74 6225.89c-445.88,404.13 -1400.89,405.78 -705.47,891.69 695.33,485.67 860.99,951.22 406.7,1094.71 0,0 0,0 -0.2,0 -1357.56,-259.39 -3029.06,-351.71 -3879.11,-231.11 -1339.1,190.07 -2721.71,-705.35 -1620.65,-1269.67 544.11,-278.9 3473.3,-761.15 5646.59,-896.11 0,0 0.16,0 0.56,0 20.84,0.4 589.25,13.6 151.57,410.48z"/>
  <path class="fil10" d="M6905.68 5883.63c46.26,8.77 224.96,27.07 307.34,-193.13 0,0 -48.72,48.27 -122.65,20.72 -52.7,-19.59 -130.78,12.23 -170.61,76.87 12.75,-139.87 -13.24,-235.89 -18.55,-363.5 -0.8,-19.39 -0.88,-36.93 -0.52,-53.14 31.7,-5.83 224.51,-51.41 212.56,-300.18 0,0 -25.67,63.56 -104.47,67.5 -62.52,3.1 -128.89,77.28 -128.2,164.13 -10.3,27.15 -17.38,59.26 -18.02,105.64 -0.85,61.83 15.04,125.31 24.74,195.1 -8.45,-17.9 -18.87,-36.28 -33.95,-54.83 -79.89,-98.35 -167.07,-110.34 -183.48,-135.61 0,0 -30.78,112.15 93.61,187.54 76.19,46.18 113.12,89.99 130.46,117.14 -1.89,49.52 -11.06,102.54 -33.79,160.63 -76.92,196.47 29.24,402.28 29.24,402.28l67.94 -41.96c0,0 -103.22,-118.91 -56,-331.44 1.85,-8.41 2.78,-15.65 4.34,-23.78z"/>
  <path class="fil11" d="M6355.09 6382.45c0,0 509.52,-567.41 1124.32,-1.93l-1124.32 1.93z"/>
  <path class="fil10" d="M7444.98 6482.22c46.26,8.81 224.91,27.04 307.34,-193.13 0,0 -48.76,48.31 -122.65,20.76 -52.7,-19.63 -130.82,12.19 -170.65,76.83 12.75,-139.91 -13.2,-235.89 -18.51,-363.5 -0.8,-19.35 -0.88,-36.93 -0.56,-53.18 31.74,-5.79 224.55,-51.37 212.61,-300.14 0,0 -25.71,63.56 -104.51,67.5 -62.48,3.1 -128.85,77.28 -128.17,164.13 -10.3,27.15 -17.38,59.22 -18.02,105.68 -0.84,61.83 15.05,125.27 24.74,195.06 -8.49,-17.9 -18.91,-36.24 -33.95,-54.83 -79.89,-98.32 -167.06,-110.35 -183.52,-135.61 0,0 -30.78,112.16 93.61,187.54 76.23,46.18 113.16,89.99 130.5,117.14 -1.93,49.52 -11.06,102.54 -33.79,160.63 -76.91,196.47 29.24,402.28 29.24,402.28l67.94 -41.96c0,0 -103.22,-118.91 -56.04,-331.44 1.89,-8.37 2.78,-15.65 4.39,-23.78z"/>
  <path class="fil11" d="M6869.2 6950.19c0,0 509.52,-567.37 1124.32,-1.93l-1124.32 1.93z"/>
  <path class="fil10" d="M7888.85 7231.5c46.26,8.81 224.91,27.07 307.3,-193.13 0,0 -48.72,48.27 -122.65,20.76 -52.66,-19.59 -130.78,12.23 -170.61,76.83 12.75,-139.87 -13.19,-235.89 -18.5,-363.5 -0.85,-19.35 -0.93,-36.93 -0.56,-53.18 31.74,-5.79 224.55,-51.37 212.6,-300.1 0,0 -25.7,63.52 -104.51,67.46 -62.51,3.14 -128.89,77.28 -128.17,164.13 -10.34,27.15 -17.38,59.26 -18.02,105.68 -0.89,61.83 15.04,125.27 24.74,195.07 -8.48,-17.86 -18.87,-36.25 -33.95,-54.87 -79.89,-98.28 -167.07,-110.34 -183.52,-135.57 0,0 -30.78,112.16 93.61,187.54 76.23,46.14 113.16,89.99 130.5,117.14 -1.93,49.52 -11.06,102.58 -33.79,160.63 -76.95,196.47 29.25,402.28 29.25,402.28l67.9 -41.96c0,0 -103.18,-118.91 -56,-331.44 1.85,-8.41 2.78,-15.69 4.39,-23.77z"/>
  <path class="fil11" d="M7338.25 7730.32c0,0 509.48,-567.37 1124.32,-1.89l-1124.32 1.89z"/>
  <path class="fil10" d="M8428.1 7830.09c46.3,8.81 224.91,27.07 307.38,-193.09 0,0 -48.76,48.28 -122.69,20.72 -52.66,-19.59 -130.82,12.23 -170.61,76.88 12.75,-139.91 -13.19,-235.9 -18.54,-363.54 -0.81,-19.35 -0.89,-36.93 -0.52,-53.14 31.7,-5.79 224.51,-51.37 212.6,-300.18 0,0 -25.7,63.56 -104.51,67.5 -62.51,3.14 -128.89,77.28 -128.17,164.13 -10.34,27.15 -17.38,59.26 -18.02,105.68 -0.89,61.83 15,125.27 24.7,195.1 -8.44,-17.94 -18.87,-36.29 -33.95,-54.87 -79.85,-98.32 -167.03,-110.35 -183.48,-135.61 0,0 -30.78,112.19 93.61,187.54 76.23,46.18 113.12,89.99 130.5,117.14 -1.93,49.52 -11.11,102.58 -33.83,160.63 -76.91,196.47 29.29,402.28 29.29,402.28l67.91 -41.96c0,0 -103.19,-118.91 -56.04,-331.44 1.89,-8.41 2.81,-15.65 4.39,-23.77z"/>
  <path class="fil11" d="M7852.36 8298.06c0,0 509.52,-567.37 1124.28,-1.93l-1124.28 1.93z"/>
  <path class="fil10" d="M9249.91 6749.09c46.26,8.77 224.91,27.04 307.34,-193.13 0,0 -48.76,48.27 -122.69,20.72 -52.66,-19.59 -130.78,12.23 -170.61,76.87 12.75,-139.91 -13.2,-235.93 -18.5,-363.54 -0.85,-19.35 -0.89,-36.93 -0.56,-53.14 31.74,-5.79 224.55,-51.37 212.6,-300.18 0,0 -25.7,63.56 -104.51,67.54 -62.52,3.1 -128.89,77.24 -128.17,164.09 -10.34,27.19 -17.38,59.26 -18.02,105.68 -0.84,61.83 15.05,125.27 24.74,195.1 -8.49,-17.94 -18.91,-36.28 -33.95,-54.87 -79.89,-98.31 -167.06,-110.34 -183.52,-135.57 0,0 -30.78,112.11 93.61,187.5 76.23,46.18 113.16,89.99 130.5,117.14 -1.93,49.52 -11.06,102.58 -33.79,160.63 -76.91,196.47 29.25,402.31 29.25,402.31l67.9 -41.96c0,0 -103.18,-118.95 -56,-331.48 1.85,-8.41 2.78,-15.65 4.39,-23.74z"/>
  <path class="fil11" d="M8699.31 7247.87c0,0 509.48,-567.37 1124.28,-1.89l-1124.28 1.89z"/>
  <path class="fil10" d="M9789.16 7347.63c46.26,8.85 224.95,27.07 307.34,-193.09 0,0 -48.72,48.27 -122.65,20.72 -52.66,-19.59 -130.78,12.23 -170.61,76.87 12.71,-139.91 -13.2,-235.89 -18.55,-363.54 -0.8,-19.35 -0.88,-36.93 -0.52,-53.14 31.7,-5.83 224.51,-51.37 212.6,-300.14 0,0 -25.7,63.56 -104.51,67.46 -62.52,3.14 -128.89,77.28 -128.17,164.13 -10.34,27.15 -17.38,59.26 -18.02,105.68 -0.88,61.83 15.05,125.27 24.7,195.11 -8.45,-17.94 -18.87,-36.29 -33.95,-54.87 -79.85,-98.32 -167.02,-110.35 -183.48,-135.57 0,0 -30.78,112.16 93.61,187.5 76.23,46.18 113.12,89.99 130.5,117.14 -1.93,49.52 -11.06,102.58 -33.83,160.63 -76.91,196.47 29.29,402.31 29.29,402.31l67.9 -42c0,0 -103.18,-118.87 -56.04,-331.4 1.89,-8.44 2.81,-15.69 4.39,-23.81z"/>
  <path class="fil11" d="M9213.42 7815.6c0,0 509.48,-567.37 1124.28,-1.89l-1124.28 1.89z"/>
  <path class="fil12" d="M4977.85 2988.25c0,0 128.65,-53.67 148.56,-61.23 19.91,-7.6 77.8,5.83 142.97,27.07 65.17,21.24 143.74,79.05 146.87,90.43 3.18,11.39 11.67,21.44 1.61,50.04 -10.06,28.6 -34.31,47.27 -34.31,47.27 0,0 4.22,41.11 -27.4,61.83 0,0 5.23,40.23 -34.47,57.93 0,0 -2.01,36.61 -31.98,47.02 0,0 -58.05,-13.39 -80.98,-12.11 -22.93,1.2 -141.8,-34.84 -250.46,-87.01 0,0 -122.25,-52.86 19.59,-221.25z"/>
  <path class="fil13" d="M5158.04 3070.39c0,0 -48.96,50.09 -69.84,57.2 -20.83,7.12 54.27,145.94 54.27,145.94 0,0 74.82,-142.04 15.57,-203.15z"/>
  <path class="fil12" d="M4932.15 2991.1c0,0 60.43,5.19 100.29,-4.39 39.83,-9.57 -43.52,182.68 -43.52,182.68 0,0 -76.35,-78.65 -133.68,-91.96 -57.41,-13.31 76.91,-86.33 76.91,-86.33z"/>
  <polygon class="fil14" points="4537.16,6514.88 4455.58,6498.51 5256.91,2499.93 5338.5,2516.33 "/>
  <path class="fil15" d="M4101.41 6255.09l-160.99 801.01c93.73,285.61 371.54,368.12 371.54,368.12 0,0 288.07,31.26 484.87,-195.99l160.99 -801.01 -856.41 -172.13z"/>
  <path class="fil16" d="M4107.33 7189.94c0,0 116.42,129.53 234.45,156.52 117.99,26.95 200.57,61.51 201.58,135.97 1.05,74.46 -339.28,124.06 -474.41,49.24 -201.66,-111.67 -222.09,-77.88 -244.54,-133.84 -22.41,-55.91 23.65,-205.56 25.02,-223.54 1.65,-22 257.9,15.65 257.9,15.65z"/>
  <path class="fil16" d="M2921.82 7225.79c0,0 85.69,126.23 200.09,155.16 112.8,28.56 185.93,83.15 191.6,155.48 5.59,72.37 -265.58,167.59 -456.42,40.79 -125.39,-83.31 -172.13,-78.44 -197.44,-131.46 -25.35,-53.06 8.77,-201.26 10.34,-219.04 1.81,-21.44 251.82,-0.93 251.82,-0.93z"/>
  <path class="fil12" d="M3848.3 3489.85c0,0 119.72,855.72 170.08,1174.28 58.93,372.51 69.59,577.83 86.17,770.64 20.88,242.53 -24.82,1622.22 -10.42,1693.1 14.44,70.93 -229.18,-36.16 -229.18,-36.16 0,0 -215.1,-1511.47 -276.44,-1769.7 -57.12,-240.4 -269.28,-1275.62 -320.9,-1209.85 -51.65,65.73 -113.84,1208.64 -151.86,1398.43 -37.97,189.76 -197.56,1652.71 -197.56,1652.71 0,0 -162.11,36.89 -232.43,-22.44 0,0 -90.47,-1241.3 -66.66,-1597 9.05,-135.57 -161.59,-1624.92 52.98,-2224.99 113.36,-317.11 1176.22,170.97 1176.22,170.97z"/>
  <path class="fil16" d="M3848.3 3489.85c0,0 119.72,855.72 170.08,1174.28 58.93,372.51 69.59,577.83 86.17,770.64 20.88,242.53 14.44,1165.76 14.96,1238.09 0.52,80.29 -350.06,39.46 -350.06,39.46 0,0 -119.6,-1132.08 -180.94,-1390.31 -57.12,-240.4 -269.28,-1275.62 -320.9,-1209.85 -51.65,65.73 -113.84,1208.64 -151.86,1398.43 -37.97,189.76 -121.33,1283.1 -121.33,1283.1 0,0 -304.32,43.13 -374.64,-16.21 0,0 -24.5,-877.93 -0.69,-1233.62 9.05,-135.57 -161.59,-1624.92 52.98,-2224.99 113.36,-317.11 1176.22,170.97 1176.22,170.97z"/>
  <path class="fil17" d="M3864.96 7091.71c0,0 162.52,61.67 227.53,17.86l20.23 86.17c0,0 -52.26,30.41 -142.28,19.19 -90.03,-11.26 -121,-40.63 -121,-40.63l15.53 -82.59z"/>
  <path class="fil17" d="M2684.6 7125.22c0,0 186.78,68.99 236.22,14.28l8.53 96.67c0,0 -18.39,29.97 -91.4,26.43 -72.97,-3.5 -167.95,-35.88 -167.95,-35.88l14.6 -101.5z"/>
  <path class="fil18" d="M5004.97 2976.82l-30.41 253.07c-793.41,-387.91 -897.52,-571.03 -926.76,-608.28 -20.19,-25.62 -108.41,-165.94 -151.3,-269.8 -3.62,-8.65 -6.92,-17.06 -9.78,-25.15l-38.22 -119.23c-0.04,0.04 -0.04,0.12 -0.04,0.2 -17.14,243.13 -10.1,612.67 -8.89,1114.22l19.71 246.23c-269.44,160.51 -1263.71,104.15 -1263.71,104.15l22.41 -594.04c0,0 18.5,-208.62 19.27,-389.28 0.08,-20.72 -0.08,-41.03 -0.48,-60.62 0,0 -0.81,-30.05 -4.06,-75.99l0 -0.04c-7.2,-99.85 -26.19,-274.47 -74.67,-377.26 -68.75,-145.74 -296.6,-223.83 -309.63,-228.17 -0.4,-0.12 -0.56,-0.2 -0.56,-0.2 0,0 -1.65,-9.9 -4.22,-26.99 -0.32,-2.26 -0.52,-3.38 -0.52,-3.38 -11.87,-79.93 -40.75,-297.93 -21.96,-412.78 36.29,-142.37 122.85,-174.83 147.07,-188.51 252.59,-142 557.48,-248.72 557.48,-248.72 77.64,4.38 309.59,25.74 384.21,32.67 0,0 459.93,175.03 594.81,320.89l402.96 930.46 697.31 626.55z"/>
  <path class="fil12" d="M3372.01 1204.47c0,0 -154.68,84.92 -448.62,-59.82 0,0 21,-292.86 -29.61,-487.16 -50.61,-194.34 391.13,272.91 391.13,272.91 -4.99,3.26 -6.68,22.37 -5.07,49.24 0.48,8.73 1.37,18.3 2.61,28.48 1.57,12.71 3.7,26.23 6.44,40.03 0.68,3.82 1.49,7.6 2.29,11.38 14.16,64.89 40.75,132.31 80.82,144.94z"/>
  <path class="fil19" d="M2896.68 695.76c0.12,0.28 0.12,0.28 0.12,0.28 32.94,69.83 72.97,136.17 116.98,192.41 152.1,194.46 506.02,198.65 510.33,-335.94 0.81,-101.21 -11.99,-183.36 -32.42,-249.89 -72.81,-237.14 -243.14,-276.32 -243.14,-276.32 -125.79,-6.72 -345.83,24.78 -418.89,188.67 -51.89,116.42 -13.88,309.19 67.02,480.8z"/>
  <path class="fil20" d="M2896.68 695.76c0.12,0.28 0.12,0.28 0.12,0.28 0,0 18.14,4.83 83.27,-127.28 13.07,-26.47 23.17,-7.56 28.85,-19.27l104.03 -40.79c0,0 -103.26,-172.06 31.34,-220.05 137.26,-48.96 347.41,13.96 347.41,13.96 14.84,-428.63 -243.14,-276.32 -243.14,-276.32 -125.79,-6.72 -345.83,24.78 -418.89,188.67 -51.89,116.42 -13.88,309.19 67.02,480.8z"/>
  <path class="fil19" d="M3029.95 469.43c-7.81,-35.72 -78.44,-66.37 -108.3,10.46 -29.89,76.87 70.64,158.13 97.07,141.24 26.39,-16.89 24.14,-92.56 11.22,-151.7z"/>
  <path class="fil18" d="M3170.75 1943.5c0,0 -306.09,186.54 -372.71,213.08 -47.87,19.11 -115.21,-53.34 -177.16,-225.15 0,0 -167.23,-238.75 -377.78,-15.17 0,0 80.41,529.44 317.35,649.88 78.33,39.79 756.6,-435.58 756.6,-435.58 0,0 -81.7,-115.41 -146.31,-187.06z"/>
  <path class="fil18" d="M2927.57 1023.61c0,0 281.83,116.86 362.13,28.68l25.67 47.19 92.6 128.28c0,0 -396.24,108.94 -494.84,-17.42l14.44 -186.74z"/>
  <path class="fil21" d="M3896.5 2351.81c-3.62,-8.65 -6.92,-17.06 -9.78,-25.15l-38.22 -119.23c-0.04,0.04 -0.04,0.12 -0.04,0.2 0,-0.2 0,-0.28 0,-0.28 0,0 -5.23,-65.89 -15.37,-150.69 -0.04,0 0,-0.04 0,-0.04 -11.91,-99.2 -30.57,-224.27 -55.59,-300.3 0,0 41.48,53.7 75.59,177.16 4.7,16.9 9.21,35.16 13.52,54.75 19.83,90.75 33.99,210.59 29.89,363.58z"/>
  <path class="fil21" d="M3135.51 2254.21c-220.49,258.94 -498.26,434.7 -498.26,434.7 0.08,-20.72 -0.08,-41.03 -0.48,-60.62 0,0 -0.81,-30.05 -4.06,-75.99 0.36,-0.12 0.76,-0.28 1.17,-0.48 124.79,-48.96 364.02,-207.06 386.19,-221.78 0.8,-0.52 115.21,-75.75 115.45,-75.83z"/>
  <path class="fil22" d="M3288.9 1048.15c-199.09,24.09 -287.63,-169.16 -287.63,-169.16 132.67,162.52 279.82,126.84 283.28,125.99 1.57,12.67 1.61,29.37 4.35,43.17z"/>
  <polygon class="fil14" points="870.85,483.15 917.14,414.85 4542.03,2466.86 4495.77,2535.24 "/>
  <polygon class="fil15" points="917.14,414.85 572.52,269.5 549.06,311.02 882.86,489.95 "/>
  <polygon class="fil15" points="381.22,173.52 786.51,372.97 598.04,988.65 -0,694.39 "/>
  <path class="fil12" d="M3569.48 1874.3c0,0 -5.83,29.53 -14.69,41.15 0,0 -17.74,19.99 -29.48,34.96 -3.7,4.75 -6.84,9.01 -8.57,11.95 -7.24,12.27 -19.47,41.43 -45.17,66.05 -25.67,24.62 -163.81,102.3 -163.81,102.3l-63.12 -62.71 -67.54 -50.28c0,0 56.96,-210.31 78.24,-236.02 2.05,-2.5 4.22,-4.91 6.44,-7 20.11,-20 43.48,-26.43 55.27,-35.72 4.35,-3.42 49.72,-34.19 65.45,-29.61 21.88,6.31 34.43,19.59 39.06,34.48 0,0 42.24,14.28 58.13,39.78 0,0 39.38,11.91 50.12,49.24 0,0 38.62,16.57 39.67,41.43z"/>
  <polygon class="fil23" points="6346.52,6057.41 5425.02,6058.94 5422.33,4478.8 6343.82,4477.23 "/>
  <path class="fil23" d="M6344.22 4722.22c0,0 28.96,319.08 50.49,455.5 21.52,136.41 15.65,848.8 1.49,879.58l-1043.71 1.77c0,0 -43.52,-549.11 -1.24,-720.72 42.32,-171.61 71.56,-590.54 71.56,-590.54l921.41 -25.58z"/>
  <path class="fil24" d="M5517.79 5138.13c0,0 -67.06,234.41 -66.9,326.73 0.16,92.28 34.52,468.57 34.52,468.57l782.79 -1.33c0,0 -11.22,-333.73 -0.76,-450.87 10.46,-117.18 -53.83,-344.27 -53.83,-344.27l-695.82 1.17z"/>
  <path class="fil25" d="M5399.44 3039.58c0,0 -164.73,-49.24 -175.92,-23.65 -11.22,25.54 0.16,41.71 0.16,41.71l-77 10.5c0,0 -47.07,35.72 5.59,76.56 0,0 -47.39,28.8 8.13,62.15 0,0 -22.77,32.99 0.24,52.94 22.97,19.99 130.26,47.31 130.26,47.31 0,0 25.26,-4.43 28.6,-47.87 0,0 42,-12.47 40.51,-53.91 0,0 31.82,-16.41 29.81,-61.19 0,0 56.07,-43.93 26.31,-98.4 0,0 -9.74,-4.1 -16.69,-6.15z"/>
  <path class="fil12" d="M5134.66 2930.44c0,0 85.2,81.58 112.15,146.59 6.07,14.72 9.33,30.09 -2.05,41.28 -11.34,11.18 -42,9.01 -80.7,-24.5 -38.7,-33.47 -104.07,-59.01 -104.07,-59.01 0,0 -29.69,-46.06 74.66,-104.35z"/>
 </g>
</svg>
